<?xml version="1.0" encoding="UTF-8"?>
<svg version="1.1" xmlns="http://www.w3.org/2000/svg" width="180" height="180">
<path d="M0 0 C59.4 0 118.8 0 180 0 C180 59.4 180 118.8 180 180 C120.6 180 61.2 180 0 180 C0 120.6 0 61.2 0 0 Z " fill="#000000" transform="translate(0,0)"/>
<path d="M0 0 C3.0525 -0.04125 6.105 -0.0825 9.25 -0.125 C10.20551758 -0.14320801 11.16103516 -0.16141602 12.14550781 -0.18017578 C13.28777832 -0.18766846 13.28777832 -0.18766846 14.453125 -0.1953125 C15.22817383 -0.20578613 16.00322266 -0.21625977 16.80175781 -0.22705078 C19.29907849 0.03089105 20.87839667 0.67239594 23 2 C24.5810545 5.16210899 24.31207429 8.54637786 24 12 C23.62875 12.66 23.2575 13.32 22.875 14 C21.59294993 16.93040016 22.57384395 19.02410192 23.4921875 22 C24 24 24 24 24 28 C22.35 27.67 20.7 27.34 19 27 C18.67 24.69 18.34 22.38 18 20 C17.67 22.64 17.34 25.28 17 28 C11.39 28 5.78 28 0 28 C0 18.76 0 9.52 0 0 Z " fill="#1A1C1E" transform="translate(94,76)"/>
<path d="M0 0 C0.66 0 1.32 0 2 0 C2 16.5 2 33 2 50 C35 50 68 50 102 50 C102 33.5 102 17 102 0 C102.66 0 103.32 0 104 0 C104 17.49 104 34.98 104 53 C69.68 53 35.36 53 0 53 C0 35.51 0 18.02 0 0 Z " fill="#717A83" transform="translate(38,107)"/>
<path d="M0 0 C34.32 0 68.64 0 104 0 C104 17.49 104 34.98 104 53 C103.34 53 102.68 53 102 53 C102 36.5 102 20 102 3 C69 3 36 3 2 3 C2 19.5 2 36 2 53 C1.34 53 0.68 53 0 53 C0 35.51 0 18.02 0 0 Z " fill="#717A83" transform="translate(38,20)"/>
<path d="M0 0 C3.33507239 0.48636472 4.02245879 0.82135521 6 3.4375 C6.38818359 5.64233398 6.38818359 5.64233398 6.3984375 8.18359375 C6.40230469 9.10333984 6.40617187 10.02308594 6.41015625 10.97070312 C6.39855469 11.92912109 6.38695313 12.88753906 6.375 13.875 C6.38660156 14.82955078 6.39820312 15.78410156 6.41015625 16.76757812 C6.40628906 17.68861328 6.40242188 18.60964844 6.3984375 19.55859375 C6.39505371 20.3983374 6.39166992 21.23808105 6.38818359 22.10327148 C5.91098307 24.97277726 5.01531706 26.35929654 3 28.4375 C-0.0625 28.8125 -0.0625 28.8125 -3 28.4375 C-7.02103304 24.41646696 -6.21573684 18.79968404 -6.25 13.4375 C-6.270625 12.63054687 -6.29125 11.82359375 -6.3125 10.9921875 C-6.33587122 7.45144805 -6.33521867 5.07737328 -4.671875 1.90234375 C-3 0.4375 -3 0.4375 0 0 Z " fill="#808993" transform="translate(58,75.5625)"/>
<path d="M0 0 C8.11111111 0 8.11111111 0 11 2 C12.5810545 5.16210899 12.31207429 8.54637786 12 12 C11.62875 12.66 11.2575 13.32 10.875 14 C9.59294993 16.93040016 10.57384395 19.02410192 11.4921875 22 C12 24 12 24 12 28 C10.35 27.67 8.7 27.34 7 27 C6.67 23.04 6.34 19.08 6 15 C5.34 15 4.68 15 4 15 C4 18.96 4 22.92 4 27 C2.68 27 1.36 27 0 27 C0 18.09 0 9.18 0 0 Z " fill="#7E8892" transform="translate(106,76)"/>
<path d="M0 0 C8.11111111 0 8.11111111 0 11 2 C12.49297212 4.98594424 12.11755228 7.70853624 12 11 C11.67 11.66 11.34 12.32 11 13 C11.08838461 15.37783105 11.24346421 17.75345146 11.4375 20.125 C11.53933594 21.40632813 11.64117187 22.68765625 11.74609375 24.0078125 C11.82988281 24.99523437 11.91367187 25.98265625 12 27 C10.68 27 9.36 27 8 27 C6.70756464 22.8803623 5.73747375 19.33168317 6 15 C5.34 15 4.68 15 4 15 C4 19.29 4 23.58 4 28 C2.68 28 1.36 28 0 28 C0 18.76 0 9.52 0 0 Z " fill="#818B95" transform="translate(38,76)"/>
<path d="M0 0 C3.4375 0.875 3.4375 0.875 5.4375 3.875 C5.5625 7.0625 5.5625 7.0625 5.4375 9.875 C3.7875 9.875 2.1375 9.875 0.4375 9.875 C0.4375 7.895 0.4375 5.915 0.4375 3.875 C-0.5525 4.37 -0.5525 4.37 -1.5625 4.875 C-1.5625 10.815 -1.5625 16.755 -1.5625 22.875 C-0.9025 22.875 -0.2425 22.875 0.4375 22.875 C0.7675 20.895 1.0975 18.915 1.4375 16.875 C0.7775 16.875 0.1175 16.875 -0.5625 16.875 C-0.5625 15.555 -0.5625 14.235 -0.5625 12.875 C1.4175 12.875 3.3975 12.875 5.4375 12.875 C5.4375 17.825 5.4375 22.775 5.4375 27.875 C4.1175 27.545 2.7975 27.215 1.4375 26.875 C0.591875 27.08125 -0.25375 27.2875 -1.125 27.5 C-3.5625 27.875 -3.5625 27.875 -5.18994141 26.7109375 C-6.98294876 24.31260678 -6.94958039 22.85164549 -6.9609375 19.875 C-6.96480469 18.905625 -6.96867187 17.93625 -6.97265625 16.9375 C-6.96105469 15.926875 -6.94945313 14.91625 -6.9375 13.875 C-6.94910156 12.864375 -6.96070312 11.85375 -6.97265625 10.8125 C-6.96878906 9.843125 -6.96492188 8.87375 -6.9609375 7.875 C-6.95755371 6.988125 -6.95416992 6.10125 -6.95068359 5.1875 C-6.5625 2.875 -6.5625 2.875 -5.26025391 1.0546875 C-3.5625 -0.125 -3.5625 -0.125 0 0 Z " fill="#7D8690" transform="translate(73.5625,76.125)"/>
<path d="M0 0 C1.8125 1.75 1.8125 1.75 3 4 C3 5.32 3 6.64 3 8 C1.68 8 0.36 8 -1 8 C-1 6.68 -1 5.36 -1 4 C-1.99 4 -2.98 4 -4 4 C-2.9983535 7.73340968 -1.78433584 10.40598842 0.625 13.375 C3.61907631 17.36119628 3.65358695 20.0980979 3 25 C1.8125 27 1.8125 27 0 28 C-2.5 28.4375 -2.5 28.4375 -5 28 C-7.40311451 25.76261752 -7.96341425 24.53659096 -8.1875 21.25 C-8.125625 20.5075 -8.06375 19.765 -8 19 C-6.68 19 -5.36 19 -4 19 C-3.34 20.32 -2.68 21.64 -2 23 C-2.29267045 18.90261363 -2.77613405 17.25116668 -5.5625 14.125 C-7.96362505 11.04663455 -8.38714781 10.44368508 -8.5 6.8125 C-8 3 -8 3 -6.8125 1 C-4.30538007 -0.38323858 -2.8180173 -0.49315303 0 0 Z " fill="#7D8690" transform="translate(128,76)"/>
<path d="M0 0 C0.99 0 1.98 0 3 0 C3.66 3.96 4.32 7.92 5 12 C5.33 12 5.66 12 6 12 C6.66 8.04 7.32 4.08 8 0 C8.99 0 9.98 0 11 0 C10.54362211 9.46383622 9.81847768 18.67809502 8 28 C6.35 28 4.7 28 3 28 C2.4932817 24.45926096 1.99582971 20.91727889 1.5 17.375 C1.35691406 16.37597656 1.21382813 15.37695312 1.06640625 14.34765625 C0.39647818 9.53055443 -0.19978289 4.87803213 0 0 Z " fill="#7D8690" transform="translate(81,76)"/>
<path d="M0 0 C2.97 0 5.94 0 9 0 C9 1.32 9 2.64 9 4 C7.35 4 5.7 4 4 4 C4 6.31 4 8.62 4 11 C5.32 11 6.64 11 8 11 C8 12.32 8 13.64 8 15 C6.68 15 5.36 15 4 15 C4 17.97 4 20.94 4 24 C5.65 24 7.3 24 9 24 C9 25.32 9 26.64 9 28 C6.03 28 3.06 28 0 28 C0 18.76 0 9.52 0 0 Z " fill="#7F8892" transform="translate(133,76)"/>
<path d="M0 0 C2.64 0 5.28 0 8 0 C8 0.99 8 1.98 8 3 C6.68 3 5.36 3 4 3 C4 5.31 4 7.62 4 10 C5.32 10 6.64 10 8 10 C8 11.32 8 12.64 8 14 C6.68 14 5.36 14 4 14 C4 16.97 4 19.94 4 23 C5.32 23 6.64 23 8 23 C8 23.99 8 24.98 8 26 C5.36 26 2.72 26 0 26 C0 17.42 0 8.84 0 0 Z " fill="#818B96" transform="translate(95,77)"/>
<path d="M0 0 C0.99 0 1.98 0 3 0 C3 6.27 3 12.54 3 19 C1.68 19 0.36 19 -1 19 C-1.02683987 16.02077407 -1.04676037 13.04178705 -1.0625 10.0625 C-1.07087891 9.21236328 -1.07925781 8.36222656 -1.08789062 7.48632812 C-1.09111328 6.67744141 -1.09433594 5.86855469 -1.09765625 5.03515625 C-1.10289307 4.2862915 -1.10812988 3.53742676 -1.11352539 2.76586914 C-1 1 -1 1 0 0 Z " fill="#131416" transform="translate(57,80)"/>
<path d="M0 0 C1.32 0.33 2.64 0.66 4 1 C4 2.98 4 4.96 4 7 C2.68 7.33 1.36 7.66 0 8 C0 5.36 0 2.72 0 0 Z " fill="#0A0B0C" transform="translate(42,80)"/>
<path d="M0 0 C0.33 0.99 0.66 1.98 1 3 C1.66 3 2.32 3 3 3 C3 4.98 3 6.96 3 9 C1.68 9 0.36 9 -1 9 C-0.67 6.03 -0.34 3.06 0 0 Z " fill="#0C0D0E" transform="translate(72,90)"/>
<path d="M0 0 C1.32 0.33 2.64 0.66 4 1 C3.67 3.31 3.34 5.62 3 8 C2.01 8 1.02 8 0 8 C0 5.36 0 2.72 0 0 Z " fill="#0F1011" transform="translate(110,80)"/>
</svg>
